<?xml version="1.0" encoding="UTF-8"?>
<!-- Created with Inkscape (http://www.inkscape.org/) -->
<svg width="546.13" height="546.13" version="1.1" viewBox="0 0 546.13 546.13" xmlns="http://www.w3.org/2000/svg">
 <rect width="546.13" height="546.13" fill="#fff"/>
 <path d="m25.621 524.51c-13.321-35.859 1.4335-74.5-6.9181-111.06-2.7231-32.979 30.931-31.804 53.576-27.917 25.545 0.12465 51.132-1.6228 76.643 0.3844 25.137 18.994 7.2945 52.674 10.937 78.457 4.9232 23.924 6.4403 73.314-31.419 60.938-34.27 0.55156-68.576 1.0078-102.82-0.80444zm113.63-21.528c2.9916-29.878 7.1917-64.972-2.247-92.183-26.004-14.221-60.016-5.353-88.182-4.7951-17.286 22.325-5.2963 56.449-8.8021 83.132 10.066 31.233 45.588 10.916 68.628 16.824 10.242 0.34563 20.801 0.45021 30.603-2.9782zm-73.839-18.887c-17.467-28.772 0.09043-71.815 37.525-60.283 27.826 5.7258 27.902 55.806 0.7589 62.579-12.789 2.63-25.494-2.3617-38.284-2.2958zm121.68 40.298c-7.4296-30.755-7.0321-62.996-2.1888-94.119 19.473-9.4376 25.83 29.757 47.958 15.479 20.36 8.6058 1.9335 44.184 28.994 50.699 9.927 12.96 53.476 3.3402 33.343 27.124-23.985 10.61-59.739-0.44356-69.112-25.981 1.5602-15.104-16.955-44.647-24.884-17.465-3.0255 14.11 11.116 45.482-14.11 44.263zm182.31 0.40017c-13.912-16.922 18.039-30.9 27.558-38.07 14.512 7.8618 40.274 42.506 6.0139 39.796-11.221 0.23802-22.373-2.6106-33.572-1.7258zm102.06 0.34619c-15.98-29.217 55.54-11.531 34.157-48.491-13.535-9.4687-33.811-31.898-2.6684-33.158 30.896 0.87718 21.554 35.288 25.098 55.074-0.79445 28.844-33.831 31.887-55.52 26.633zm-167.65-27.011c-18.798-27.443-49.052-44.163-68.023-71.232-12.499-24.384-56.229-15.564-55.045-46.922 6.02-29.092-50.773-5.0406-33.594-35.124 21.499 0.0275 52.668 5.5188 62.306-20.975 20.085-12.953 44.789 21.867 14.716 25.926-13.755 10.143-29.871 37.268-0.21039 36.865 17.182 1.3934 53.231-13.131 56.769 9.1051-24.676 12.602-12.144 41.934 13.954 28.242 12.776-14.92 29.33-22.22 47.132-24.942 5.2966-15.409-33.995-22.739-9.0202-35.806 21.227-8.7341 4.218-40.169 29.552-49.728 17.133-22.036 37.616 18.901 48.526 28.52 14.897-0.97308 28.926-35.611 34.499-4.7206-1.1347 33.959-0.34753 68.005-0.58042 102.01 23.929-0.10577 26.707 34.702-1.0314 27.323-19.314 2.1484-28.512-38.794-41.356-7.5848-10.709 12.533-42.196-2.7596-39.006 25.872 6.6703 30.8-29.865 18.394-48.45 20.531-7.0357-0.52176-13.175 3.2381-11.137-7.3618zm36.433-13.853c9.4665-17.367-22.513-24.364-24.436-38.265-20.992 0.45449-5.4624 24.796 6.4868 24.104 2.9358 7.615 6.6584 22.039 17.949 14.161zm78.949-60.068c17.957-25.492 6.7569-69.229-29.627-62.073-30.56-4.0674-34.091 35.02-23.253 54.749 12.478 15.615 36.04 9.6831 52.88 7.3246zm-31.2-22.047c-18.079-23.074 35.544-10.338 8.4642 1.6459-2.7963 0.59896-6.2905 0.53226-8.4642-1.6459zm17.333 73.573c14.032-32.672 27.846 29.751-0.25597 5.1179zm66.133 8.8433c-22.404-29.448 39.756-9.7017 1.7755 0.76163l-1.3244-0.56812zm-5.3333-47.243c9.3743-33.508 30.961 29.578-0.8865 2.9031zm43.373-14.988c-9.9618-17.003-32.112-33.749-27.382-52.042-19.693-6.8236-14.935-34.676 7.5662-23.646 26.283-6.4473 4.9521-35.681-14.591-21.912-18.822 5.1874-39.925-12.521-29.218-31.949-16.772-6.0204-31.177-31.103-2.6709-30.63 25.451-7.1763 48.538 11.629 46.879 34.739 20.335 8.0901 49.111 17.755 37.714 45.05-0.98686 18.119-36.935 35.783-5.3472 48.153 10.29 9.8392 6.5772 41.338-12.951 32.236zm-225.96-45.941c-13.884-11.365-38.271-47.098-7.3568-50.525 9.9678 16.15 23.415 20.053 41.006 20.663 14.578 17.574-16.185 20.518-21.773 35.735-5.8942 6.0106-12.607 1.6517-11.876-5.8728zm-258.69-13.749c-3.5704-23.47-13.266-50.88 1.8468-72.149 22.375-18.669 62.129 8.3399 78.698-22.011 19.577-15.384 22.601 31.782 1.0922 35.941-22.409 2.4524-56.495-15.82-67.157 17.602-7.7641 12.25 13.493 46.192-14.48 40.617zm40.643 0.0406c-20.86-19.836 34.79-20.157 10.394-0.19739l-5.1692 1.2101zm15.752-26.825c0.44014-28.314 35.26 12.977 5.476 7.9182-4.4656 1.4896-8.8991-4.2043-5.476-7.9182zm43.557 5.6863c-12.489-33.553 43.597 2.9642 3.1593 0.79842zm17.054-25.173c9.1051-19.614 34.296-44.877 48.975-15.312 23.338 11.852 3.4635 28.239-14.129 22.167-8.5187-3.3955-38.465 7.2971-34.846-6.8549zm141.69-0.65705c-9.2778-11.059-29.833-31.269-6.1622-35.983 7.4537-19.278 34.629-14.549 23.287 8.1387-0.14252 23.305 57.594 9.302 37.876 33.633-13.1-0.33071-52.889 9.5867-55.001-5.7891zm121.78-12.261c-9.2728-31.111 34.413-14.17 20.913 7.9392-6.1292 21.539-27.336 11.896-20.913-7.9392zm-202.67-17.54c17.934-33.623-60.004-12.363-34.511-42.371 17.577-6.3984 50.086-40.444 13.511-42.857-14.351 4.8758-57.542 1.4936-29.345-16.658 25.599-3.1422 52.938-2.7866 77.856-1.3805 29.844 17.257-29.007 26.451-7.2928 49.805 18.274 24.351 26.591-20.092 49.73-11.099 16.397-7.6199 41.103 18.083 13.878 19.236-19.157 0.43561-32.467 17.554-22.826 34.468-13.682 22.609-22.31-11.423-33.271-11.342-15.111 13.916 7.3733 24.506 12.443 24.663-0.39036 21.417-48.554 23.553-40.173-2.4646zm141.87 7.4072c9.9981-32.869 34.023 28.708-0.0746 7.0202l-0.81809-3.5305zm-200.05-13.285c-9.695-34.074 42.93 6.2553 2.9654 1.2075zm182.59 0.40744c-11.398-33.19 41.642 3.1688 3.5962 1.1309-1.2091-0.34188-2.3946-0.76364-3.5962-1.1309zm37.723-3.1568c-5.9474-20.619-54.551-33.05-29.405-57.881 11.899-10.301 25.021-23.387 31.182-2.4642 19.143 18.853 45.257-1.0287 38.758-23.948 13.511-22.101 21.421 4.8361 19.487 17.161 9.3242 8.9101 29.034 35.552 1.2807 30.249-32.977-4.1214-11.029 55.455-48.258 42.925-4.235 0.14274-14.169 1.2968-13.045-6.0424zm-341.48-16.936c-22.62-23.156 32.339-45.048 4.7136-60.466-19.559-26.732 32.302-12.759 45.727-18.206 14.075-3.0326 63.394 2.5409 37.225 20.469-13.996 0.99185-57.39-8.8106-44.432 16.008 22.473 2.695 53.536 21.324 26.572 43.741-22.327 3.966-46.982-1.0472-69.806-1.5454zm485.54-0.0368c-1.899-15.798-40.923-33.254-6.1273-40.775 23.153-4.3421 38.938 48.188 6.1273 40.775zm-384.21-20.23c-17.286-15.608 8.8991-56.537 21.213-24.465 17.557 9.0804 17.074 35.728-7.5745 26.696-4.6142-0.0828-9.2865-0.60142-13.638-2.2311zm141.03-41.307c-1.7466-15.192-11.52-59.22 12.858-50.797-0.28305 14.441 16.953 51.212 23.96 20.189 2.4127-26.997 8.3938-58.854-17.838-75.273 14.05-15.884 54.16-14.349 41.428-47.578 20.5-11.253 29.566 20.529 38.26 33.895 1.0386 23.827-2.6779 48.241-0.70313 71.479-9.2485 22.385-25.626-5.325-30.881-7.9456-25.619 14.103 24.988 23.457 3.1728 36.136-13.126 23.057-40.373 27.483-64.143 21.709l-3.0844-0.79727zm74.939-79.369c14.252-35.842-41.944 4.99 0 0zm24.184 74.79c5.1021-30.106 33.83 19.434 0.7569 6.4548l-1.4566-3.0053zm83.2 5.2559c-16.682-21.497 34.333-12.042 10.76 1.6692-3.5287 0.85213-7.8418 0.84026-10.76-1.6692zm41.375 1.0047c-19.117-21.753 34.972-12.362 8.6095 0.7155l-4.3342 0.1679zm-466.06-41.444c-5.7044-28.998-1.3038-58.798-2.5182-88.196v-45.172c20.67-10.452 44.414-2.5859 66.54-4.8593h69.648c10.724 37.057-2.1078 76.024 6.4486 113.41-2.5087 40.145-50.948 24.885-77.052 27.083-21.039 0.15382-42.12-0.11967-63.067-2.2627zm113.58-18.345c7.9172-29.652 7.791-66.154 0.88885-93.9-25.036-15.753-57.146-1.5234-84.764-6.4813-19.355 7.2943-12.376 30.622-12.49 46.462v49.868c30.825 12.146 64.408 2.0019 96.366 4.0521zm-73.534-22.392c-12.095-23.752-0.55695-67.952 32.506-59.786 32.826-1.923 37.089 53.635 9.9467 62.978-14.249 2.7115-28.253-3.0363-42.452-3.1925zm121.25 39.966c-19.232-13.811 15.313-53.606 17.173-19.807 2.6316 10.193-3.6018 32.478-17.173 19.807zm40.533 0c-2.0344-16.038-11.867-64.739 14.952-51.638 3.7326 13.813 9.3364 61.388-14.952 51.638zm162.06 0.67718c-5.4752-41.535 0.87496-83.495-3.0582-125.12 7.4466-21.742 33.815-10.484 50.969-13.017h85.364c10.452 20.67 2.5859 44.414 4.8593 66.54v69.648c-35.526 9.6362-72.521 0.44251-108.65 4.2714-9.8643-0.013-19.773-0.4881-29.484-2.3265zm115.78-19.685c3.3889-30.502 6.0051-64.903-0.60458-93.763-14.741-11.185-34.505-2.9178-51.63-4.9522h-41.244c-9.1304 29.844-7.8455 66.829-0.54612 95.059 24.824 14.868 56.084 1.6793 83.655 6.3437 3.5575-0.40125 7.0892-1.2286 10.37-2.6873zm-75.248-20.848c-10.108-25.673-2.5437-67.749 33.032-59.708 32.17-1.2038 38.541 59.403 6.5495 63.178-13.336 1.4757-26.304-3.455-39.582-3.4702zm-162.09-0.20113c-13.211-34.137 42.265 0.0163 3.7317 2.7429-1.5576-0.29985-2.4535-1.916-3.7317-2.7429zm-81.031-20.743c-3.8671-16.754 35.727-32.802 1.9293-40.072-7.2199-16.625 34.214-51.563 36.308-20.018-6.6862 21.529 17.199 27.929 23.207 7.6777 12.875-16.846 54.719 3.8727 23.77 13.734-14.548 10.145 2.2224 48.905-24.862 40.901 2.2168-28.216-27.395-8.7002-34.345 0.67359-8.6783 0.19433-18.118 1.7647-26.008-2.895zm99.123-64.152c3.6832-32.482 35.07 21.449-0.0532 5.5337l-0.81097-2.6522zm60.8 0c3.3422-32.353 35.227 20.923-0.0929 5.6536l-0.84425-2.6845z" stroke-width="1.0667"/>
</svg>
